<?xml version="1.0" encoding="UTF-8"?>
<svg width="34px" height="32px" viewBox="0 0 34 32" version="1.1" xmlns="http://www.w3.org/2000/svg" xmlns:xlink="http://www.w3.org/1999/xlink">
    <title>back</title>
    <g id="Page-1" stroke="none" stroke-width="1" fill="none" fill-rule="evenodd">
        <g id="back" fill-rule="nonzero">
            <circle id="Oval" fill="#000000" cx="29.5" cy="2.5" r="1"></circle>
            <path d="M33.9594243,8.77401458 C32.8299235,5.97758331 28.2672956,5.6557818 27.1545113,5.61915284 C24.9269595,3.45355358 23.2174792,2.63522624 22.5549086,2.37433264 L22.0844368,0.431173588 C22.011061,0.129893624 21.7053047,-0.0556495089 21.4010413,0.0164664513 C21.2548903,0.0511505747 21.1286397,0.141942196 21.0500753,0.268859477 C20.971511,0.395776757 20.9470715,0.548418249 20.9821358,0.693189907 L21.8475717,4.26724968 C21.8826122,4.4121057 21.974332,4.53722621 22.1025351,4.61506065 C22.2307383,4.69289509 22.3849121,4.7170611 22.5311088,4.6822375 C22.8354474,4.60981086 23.0229615,4.30676452 22.9500143,4.00523336 L22.8951897,3.7791443 C23.7059426,4.21658665 24.9799425,5.05119353 26.5160239,6.57276875 C26.6222732,6.67802436 26.7662056,6.73696751 26.9160879,6.73724819 C28.307812,6.73893228 32.0962367,7.18325133 32.9069896,9.19124785 C33.0233604,9.47885687 33.3528668,9.61877115 33.6433681,9.50392721 C33.9340325,9.38875174 34.0755033,9.06203333 33.9594243,8.77401458 L33.9594243,8.77401458 Z M7.76727388,6.57262841 C9.18208945,5.17090425 10.3001153,4.35229622 11.044427,3.88818912 L11.0067439,4.03751175 C10.9642297,4.20527307 11.0022382,4.38308264 11.1097464,4.51937217 C11.2172547,4.6556617 11.3822321,4.73518004 11.5568319,4.73486531 C11.8166606,4.73463914 12.042991,4.55926062 12.1057866,4.30949227 L13.0161306,0.698242176 C13.0527096,0.553818912 13.0298092,0.400913411 12.9524776,0.273232757 C12.8751459,0.145552103 12.7497323,0.0535792953 12.6038833,0.0175891779 C12.2990187,-0.0597386164 11.992454,0.125370931 11.9170879,0.426261659 L11.4196995,2.39931331 C10.8085536,2.67859155 9.2934387,3.50702344 7.1286448,5.61887216 C5.98256911,5.65367669 1.17372616,5.96832082 0.0404003795,8.77401458 C-0.0292935223,8.9470308 -0.00790492663,9.14301713 0.0975058906,9.29727939 C0.202916708,9.45154166 0.378646821,9.54402647 0.566688538,9.54420502 C0.791370374,9.54420502 1.00443562,9.41046022 1.0929767,9.19110751 C1.90372963,7.18254963 5.89686134,6.7386516 7.36720988,6.73710785 C7.51727714,6.73686591 7.66113245,6.67772227 7.76727388,6.57262841 L7.76727388,6.57262841 Z M8.47064419,21.5102251 C8.52076343,21.3618888 8.50606581,21.1995566 8.43010009,21.0624236 C8.35413436,20.9252906 8.22380505,20.8258208 8.07058019,20.7880312 C7.548117,20.658637 5.97435249,20.1254822 5.60687161,19.3975343 C5.4844476,19.1544291 5.20369823,19.0332564 4.94061772,19.109976 C4.67744952,19.1862285 4.50724527,19.4383195 4.53658708,19.7083892 C4.55316197,19.8622028 4.96271757,23.5065733 6.58025679,26.3605443 L7.81657355,28.7664071 L7.81657355,31.4386367 C7.81657355,31.7486496 8.07001352,32 8.38323644,32 C8.69645935,32 8.94989933,31.7486496 8.94989933,31.4386367 L8.94989933,28.6318202 C8.94989933,28.5432652 8.9289328,28.4561135 8.8884164,28.377242 L7.57970846,25.8313191 C6.69755601,24.274378 6.19407603,22.4225808 5.92675281,21.1422514 C6.41039959,21.4143723 6.91557955,21.6066392 7.28192711,21.7269113 C7.14961133,23.5340801 9.00019066,25.4289619 9.23266411,25.6592612 C9.37493869,25.8051913 9.58562589,25.8637168 9.78374792,25.8123434 C9.98186994,25.76097 10.1365944,25.6076926 10.1884528,25.4114234 C10.2403112,25.2151543 10.1812332,25.0064375 10.0339254,24.8654935 C9.51047059,24.3463728 8.09877167,22.6162511 8.47064419,21.5102251 L8.47064419,21.5102251 Z M29.6624196,19.1216242 C29.3914556,19.0236628 29.089376,19.1421944 28.959616,19.397394 C28.655318,20.0004385 27.0195039,20.5702222 25.955311,20.7821369 C25.7959713,20.814001 25.6580001,20.9118636 25.5762135,21.0510299 C25.4948816,21.1903094 25.4777563,21.3574568 25.5291805,21.5100847 C25.9016197,22.6169528 24.5264705,24.307358 23.9653326,24.8653532 C23.7445085,25.0849072 23.7450158,25.4401865 23.9664659,25.6591209 C24.0726164,25.7643922 24.2166714,25.8235193 24.366872,25.8234667 C24.5170725,25.823414 24.6610853,25.7641859 24.7671606,25.6588402 C24.9985007,25.4299443 26.8279718,23.556254 26.7200225,21.7591897 C27.1804361,21.6421455 27.8267152,21.4483348 28.4327611,21.1638639 C28.0188139,22.4521927 27.3519933,24.27522 26.4825908,25.8098469 L24.9016013,28.3357011 C24.8457897,28.4244138 24.8162409,28.5268674 24.8163186,28.6313992 L24.8163186,31.4382157 C24.8163186,31.7482286 25.0697585,31.999579 25.3829815,31.999579 C25.6962044,31.999579 25.9496443,31.7482286 25.9496443,31.4382157 L25.9496443,28.7912474 L27.458101,26.380192 C29.0672819,23.5399744 29.9781925,19.93518 30.0164422,19.7830506 C30.0857324,19.5054278 29.9332697,19.2205793 29.6624196,19.1216242 L29.6624196,19.1216242 Z M16.8831798,19.9291453 C16.5699569,19.9291453 16.3165169,20.1804958 16.3165169,20.4905086 L16.3165169,28.3495948 C16.3165169,28.6596077 16.5699569,28.9109581 16.8831798,28.9109581 C17.1964027,28.9109581 17.4498427,28.6596077 17.4498427,28.3495948 L17.4498427,20.4905086 C17.4498427,20.1804958 17.1964027,19.9291453 16.8831798,19.9291453 Z M16.8831798,17.1223289 C15.9457777,17.1223289 15.1831911,17.8777835 15.1831911,18.8064188 C15.1831911,19.1164316 15.4366311,19.3677821 15.749854,19.3677821 C16.0630769,19.3677821 16.3165169,19.1164316 16.3165169,18.8064188 C16.3165169,18.4969672 16.5705235,18.2450555 16.8831798,18.2450555 C17.195836,18.2450555 17.4498427,18.4969672 17.4498427,18.8064188 C17.4498427,19.1164316 17.7032826,19.3677821 18.0165056,19.3677821 C18.3297285,19.3677821 18.5831684,19.1164316 18.5831684,18.8064188 C18.5831684,17.8777835 17.8205819,17.1223289 16.8831798,17.1223289 Z M16.8831798,14.3155124 C15.9457777,14.3155124 15.1831911,15.070967 15.1831911,15.9996023 C15.1831911,16.3096151 15.4366311,16.5609656 15.749854,16.5609656 C16.0630769,16.5609656 16.3165169,16.3096151 16.3165169,15.9996023 C16.3165169,15.6901507 16.5705235,15.438239 16.8831798,15.438239 C17.195836,15.438239 17.4498427,15.6901507 17.4498427,15.9996023 C17.4498427,16.3096151 17.7032826,16.5609656 18.0165056,16.5609656 C18.3297285,16.5609656 18.5831684,16.3096151 18.5831684,15.9996023 C18.5831684,15.070967 17.8205819,14.3155124 16.8831798,14.3155124 Z M16.8831798,11.5086959 C15.9457777,11.5086959 15.1831911,12.2641505 15.1831911,13.1927858 C15.1831911,13.5027987 15.4366311,13.7541491 15.749854,13.7541491 C16.0630769,13.7541491 16.3165169,13.5027987 16.3165169,13.1927858 C16.3165169,12.8833343 16.5705235,12.6314225 16.8831798,12.6314225 C17.195836,12.6314225 17.4498427,12.8833343 17.4498427,13.1927858 C17.4498427,13.5027987 17.7032826,13.7541491 18.0165056,13.7541491 C18.3297285,13.7541491 18.5831684,13.5027987 18.5831684,13.1927858 C18.5831684,12.2641505 17.8205819,11.5086959 16.8831798,11.5086959 L16.8831798,11.5086959 Z M16.8831798,6.4564262 C17.1964027,6.4564262 17.4498427,6.20507579 17.4498427,5.89506291 L17.4498427,4.21097301 C17.4498427,3.90096013 17.1964027,3.64960971 16.8831798,3.64960971 C16.5699569,3.64960971 16.3165169,3.90096013 16.3165169,4.21097301 L16.3165169,5.89506291 C16.3165169,6.20507579 16.5699569,6.4564262 16.8831798,6.4564262 Z" id="Shape" fill="#F1E8E8"></path>
            <path d="M22.3816365,10.8846781 C18.6748349,11.3508771 17.5741234,7.55610593 17.5286429,7.39550985 C17.4635699,7.16216481 17.2475582,7.00025968 17.0009589,7 L16.999863,7 C16.7534775,7.00023768 16.5374872,7.16161604 16.4717681,7.39456912 C16.4257396,7.5565091 15.3154389,11.3514147 11.6182265,10.8848125 C11.3180823,10.8454362 11.0435552,11.055219 11.0045131,11.3488613 C10.9660254,11.6433534 11.1779491,11.9127783 11.4780862,11.9509286 C14.3666489,12.3183509 16.1335408,10.5535411 17,8.95913781 C17.7882382,10.4098781 19.3245765,11.9997122 21.7673751,11.9997122 C22.0098467,11.9997122 22.2612226,11.9839885 22.5219138,11.9509286 C22.8220509,11.9127783 23.0339746,11.6433534 22.9954869,11.3488613 C22.9563078,11.0548159 22.6808218,10.8430172 22.3816365,10.8846781 Z" id="Path" fill="#F1E8E8"></path>
        </g>
    </g>
</svg>