<?xml version="1.0" encoding="UTF-8"?>
<svg width="240px" height="229px" viewBox="0 0 240 229" version="1.1" xmlns="http://www.w3.org/2000/svg" xmlns:xlink="http://www.w3.org/1999/xlink">
    <title>back</title>
    <g id="Page-1" stroke="none" stroke-width="1" fill="none" fill-rule="evenodd">
        <g id="back" fill="#F1E8E8" fill-rule="nonzero">
            <path d="M239.715181,62.5193319 C231.742181,42.5933319 199.535181,40.3003319 191.680181,40.0393319 C175.956181,24.6083319 163.889181,18.7773319 159.212181,16.9183319 L155.891181,3.07233187 C155.373231,0.925558368 153.214937,-0.396531153 151.067181,0.11733187 C150.03552,0.36447395 149.144333,1.01141059 148.589758,1.91576099 C148.035182,2.82011139 147.862667,3.90775992 148.110181,4.93933187 L154.219181,30.4063319 C154.466528,31.4385049 155.113966,32.3300524 156.018935,32.8846626 C156.923904,33.4392727 158.012197,33.6114678 159.044181,33.3633319 C161.192468,32.8472551 162.516105,30.6878952 162.001181,28.5393319 L161.614181,26.9283319 C167.337181,30.0453319 176.330181,35.9923319 187.173181,46.8343319 C187.923181,47.5843319 188.939181,48.0043319 189.997181,48.0063319 C199.821181,48.0183319 226.563181,51.1843319 232.286181,65.4923319 C233.107627,67.5416929 235.43357,68.5386536 237.484181,67.7203319 C239.535943,66.8996479 240.534568,64.5716125 239.715181,62.5193319 L239.715181,62.5193319 Z M54.8281811,46.8333319 C64.8151811,36.8453319 72.7071811,31.0123319 77.9611811,27.7053319 L77.6951811,28.7693319 C77.3950781,29.9647169 77.6633758,31.2317008 78.4222623,32.2028333 C79.1811489,33.1739657 80.345703,33.7405745 81.5781811,33.7383319 C83.4122777,33.7367203 85.0099148,32.4870589 85.4531811,30.7073319 L91.8791811,4.97533187 C92.1373878,3.9462424 91.9757367,2.85671267 91.4298628,1.94692284 C90.8839889,1.03713302 89.9987102,0.381779824 88.9691811,0.12533187 C86.8171811,-0.42566813 84.6531811,0.89333187 84.1211811,3.03733187 L80.6101811,17.0963319 C76.2961811,19.0863319 65.6011811,24.9893319 50.3201811,40.0373319 C42.2301811,40.2853319 8.28518105,42.5273319 0.28518105,62.5193319 C-0.206779182,63.7521607 -0.055799854,65.1486634 0.688281463,66.2478607 C1.43236278,67.3470581 2.6728189,68.0060596 4.00018105,68.0073319 C5.58618105,68.0073319 7.09018105,67.0543319 7.71518105,65.4913319 C13.4381811,51.1793319 41.6251811,48.0163319 52.0041811,48.0053319 C53.0634864,48.0036079 54.0789425,47.5821793 54.8281811,46.8333319 L54.8281811,46.8333319 Z M59.7931811,153.271332 C60.1469663,152.21436 60.0432177,151.05766 59.5069855,150.080518 C58.9707532,149.103375 58.0507755,148.394602 56.9691811,148.125332 C53.2811811,147.203332 42.1721811,143.404332 39.5781811,138.217332 C38.7140058,136.485083 36.7322323,135.621666 34.8751811,136.168332 C33.0175108,136.71167 31.8160611,138.507947 32.0231811,140.432332 C32.1401811,141.528332 35.0311811,167.496332 46.4491811,187.832332 L55.1761811,204.975332 L55.1761811,224.016332 C55.1761811,226.225332 56.9651811,228.016332 59.1761811,228.016332 C61.3871811,228.016332 63.1761811,226.225332 63.1761811,224.016332 L63.1761811,204.016332 C63.1761811,203.385332 63.0281811,202.764332 62.7421811,202.202332 L53.5041811,184.061332 C47.2771811,172.967332 43.7231811,159.772332 41.8361811,150.649332 C45.2501811,152.588332 48.8161811,153.958332 51.4021811,154.815332 C50.4681811,167.692332 63.5311811,181.194332 65.1721811,182.835332 C66.1764789,183.875158 67.6636926,184.292182 69.0622103,183.92612 C70.4607281,183.560059 71.5529079,182.467879 71.9189697,181.069361 C72.2850314,179.670843 71.8680074,178.18363 70.8281811,177.179332 C67.1331811,173.480332 57.1681811,161.152332 59.7931811,153.271332 L59.7931811,153.271332 Z M209.383181,136.251332 C207.470481,135.553307 205.338141,136.397904 204.422181,138.216332 C202.274181,142.513332 190.727181,146.573332 183.215181,148.083332 C182.090423,148.31038 181.116502,149.007701 180.539181,149.999332 C179.96507,150.991769 179.844184,152.18278 180.207181,153.270332 C182.836181,161.157332 173.129181,173.202332 169.168181,177.178332 C167.609413,178.742767 167.612993,181.274313 169.176181,182.834332 C169.925483,183.584444 170.942349,184.005755 172.002596,184.005379 C173.062842,184.005004 174.07941,183.582974 174.828181,182.832332 C176.461181,181.201332 189.375181,167.850332 188.613181,155.045332 C191.863181,154.211332 196.425181,152.830332 200.703181,150.803332 C197.781181,159.983332 193.074181,172.973332 186.937181,183.908332 L175.777181,201.906332 C175.383214,202.538455 175.174633,203.26849 175.175181,204.013332 L175.175181,224.013332 C175.175181,226.222332 176.964181,228.013332 179.175181,228.013332 C181.386181,228.013332 183.175181,226.222332 183.175181,224.013332 L183.175181,205.152332 L193.823181,187.972332 C205.182181,167.734332 211.612181,142.048332 211.882181,140.964332 C212.371291,138.986128 211.295077,136.956437 209.383181,136.251332 L209.383181,136.251332 Z M119.176181,142.005332 C116.965181,142.005332 115.176181,143.796332 115.176181,146.005332 L115.176181,202.005332 C115.176181,204.214332 116.965181,206.005332 119.176181,206.005332 C121.387181,206.005332 123.176181,204.214332 123.176181,202.005332 L123.176181,146.005332 C123.176181,143.796332 121.387181,142.005332 119.176181,142.005332 Z M119.176181,122.005332 C112.559181,122.005332 107.176181,127.388332 107.176181,134.005332 C107.176181,136.214332 108.965181,138.005332 111.176181,138.005332 C113.387181,138.005332 115.176181,136.214332 115.176181,134.005332 C115.176181,131.800332 116.969181,130.005332 119.176181,130.005332 C121.383181,130.005332 123.176181,131.800332 123.176181,134.005332 C123.176181,136.214332 124.965181,138.005332 127.176181,138.005332 C129.387181,138.005332 131.176181,136.214332 131.176181,134.005332 C131.176181,127.388332 125.793181,122.005332 119.176181,122.005332 Z M119.176181,102.005332 C112.559181,102.005332 107.176181,107.388332 107.176181,114.005332 C107.176181,116.214332 108.965181,118.005332 111.176181,118.005332 C113.387181,118.005332 115.176181,116.214332 115.176181,114.005332 C115.176181,111.800332 116.969181,110.005332 119.176181,110.005332 C121.383181,110.005332 123.176181,111.800332 123.176181,114.005332 C123.176181,116.214332 124.965181,118.005332 127.176181,118.005332 C129.387181,118.005332 131.176181,116.214332 131.176181,114.005332 C131.176181,107.388332 125.793181,102.005332 119.176181,102.005332 Z M119.176181,82.0053319 C112.559181,82.0053319 107.176181,87.3883319 107.176181,94.0053319 C107.176181,96.2143319 108.965181,98.0053319 111.176181,98.0053319 C113.387181,98.0053319 115.176181,96.2143319 115.176181,94.0053319 C115.176181,91.8003319 116.969181,90.0053319 119.176181,90.0053319 C121.383181,90.0053319 123.176181,91.8003319 123.176181,94.0053319 C123.176181,96.2143319 124.965181,98.0053319 127.176181,98.0053319 C129.387181,98.0053319 131.176181,96.2143319 131.176181,94.0053319 C131.176181,87.3883319 125.793181,82.0053319 119.176181,82.0053319 L119.176181,82.0053319 Z M119.176181,46.0053319 C121.387181,46.0053319 123.176181,44.2143319 123.176181,42.0053319 L123.176181,30.0053319 C123.176181,27.7963319 121.387181,26.0053319 119.176181,26.0053319 C116.965181,26.0053319 115.176181,27.7963319 115.176181,30.0053319 L115.176181,42.0053319 C115.176181,44.2143319 116.965181,46.0053319 119.176181,46.0053319 Z" id="Shape"></path>
            <path d="M158.461181,78.9153319 C131.402181,82.3843319 123.367181,54.1473319 123.035181,52.9523319 C122.56016,51.2160048 120.983313,50.0112641 119.183181,50.0093319 L119.175181,50.0093319 C117.37661,50.0111004 115.799919,51.2119214 115.320181,52.9453319 C114.984181,54.1503319 106.879181,82.3883319 79.8901811,78.9163319 C77.6991811,78.6233319 75.6951811,80.1843319 75.4101811,82.3693319 C75.1292273,84.5606565 76.6762332,86.5654545 78.8671811,86.8493319 C99.9531811,89.5833319 112.851181,76.4513319 119.176181,64.5873319 C124.930181,75.3823319 136.145181,87.2123319 153.977181,87.2123319 C155.747181,87.2123319 157.582181,87.0953319 159.485181,86.8493319 C161.676129,86.5654545 163.223135,84.5606565 162.942181,82.3693319 C162.656181,80.1813319 160.645181,78.6053319 158.461181,78.9153319 Z" id="Path"></path>
        </g>
    </g>
</svg>