<?xml version="1.0" encoding="UTF-8"?>
<svg width="98px" height="133px" viewBox="0 0 98 133" version="1.1" xmlns="http://www.w3.org/2000/svg" xmlns:xlink="http://www.w3.org/1999/xlink">
    <title>biceps</title>
    <g id="Page-1" stroke="none" stroke-width="1" fill="none" fill-rule="evenodd">
        <g id="biceps" transform="translate(0.569, 0)" fill="#F1E8E8" fill-rule="nonzero">
            <path d="M97.4297926,125.61622 L97.4297926,130.872 C97.4297926,132.0481 96.4796219,133 95.3048103,133 C94.1303781,133 93.179828,132.0481 93.179828,130.872 L93.179828,127.21868 C88.5834154,125.74124 84.0947698,122.92126 80.6583699,119.31734 C76.7085591,115.19092 74.2124638,110.73998 73.0535895,108.4121 C72.60962,108.5242 72.1683068,108.63478 71.7436898,108.73168 C64.5988163,110.2798 50.8509399,112.46632 38.7897681,109.79796 C30.3357158,107.91924 19.9307401,102.4936 7.86349694,93.66962 C7.21803357,93.19348 5.66573401,92.59726 4.53258721,92.1633 C3.07378687,91.60394 2.28541844,91.29006 1.73292305,90.84736 C0.637494685,89.98742 0,88.67148 0,87.248 L0,83.18314 C0,79.0286 12.2685852,27.3315 13.7273855,22.929732 C14.2400375,21.302344 15.8815863,20.525092 16.2051149,20.388368 L17.8790697,19.621756 C21.3289784,8.278984 31.8667655,0 44.3052355,0 C59.5371844,0 71.9300052,12.410496 71.9300052,27.664 C71.9300052,42.91758 59.5371844,55.328 44.3052355,55.328 C41.3389879,55.328 38.4854403,54.84502 35.8049269,53.97406 L37.2882404,65.15784 C41.5708387,61.63106 47.0092755,59.584 52.8051646,59.584 C58.2147624,59.584 63.381505,61.41712 67.5650639,64.59012 C71.8848493,58.84148 79.0338968,55.328 86.8048811,55.328 C90.0276444,55.328 93.1506095,55.91434 96.083085,57.07144 C97.1770714,57.5035 97.7121116,58.73812 97.2829411,59.83138 C96.8514938,60.92692 95.6140711,61.45664 94.5265355,61.03256 C92.0903951,60.0704 89.4918453,59.584 86.8048811,59.584 C80.228061,59.584 74.2272628,62.586 70.7381178,67.4633 C72.3921888,69.24664 73.801128,71.2804 74.8750029,73.53456 C75.3812041,74.59666 74.9307837,75.86624 73.8724666,76.37126 C72.8099755,76.87818 71.5418164,76.42712 71.0397894,75.3673 C67.705085,68.36428 60.5476894,63.84 52.8051646,63.84 C44.6725539,63.84 37.3721013,68.68614 34.2032215,76.1881 C33.8605681,77.00054 33.0742867,77.48694 32.2460749,77.48694 C31.9698272,77.48694 31.6877358,77.4326 31.417863,77.3186 C30.3367783,76.86184 29.8326263,75.61278 30.2889662,74.53016 C31.1325842,72.53288 32.2301375,70.70242 33.515638,69.0441 L31.2606144,52.03872 C22.7134044,47.43312 16.8670469,38.4503 16.7023607,28.107688 C13.3119515,41.2072 4.32699517,80.03446 4.24996456,83.19188 L4.24996456,87.248 C4.24996456,87.3601 4.28927674,87.4475 4.37055731,87.50982 C4.54055589,87.60976 5.41445485,87.94378 6.05141829,88.18926 C7.5622807,88.76686 9.27395392,89.4235 10.3762885,90.23632 C21.9600981,98.7069 31.8317033,103.89162 39.7088229,105.64152 C51.3962255,108.23046 65.3622921,105.7578 70.8219787,104.57524 C76.1886973,103.35316 83.9266685,100.49176 84.0033197,100.46288 C85.0179987,100.08668 86.1575205,100.53584 86.6409539,101.50408 C87.5125761,103.23726 90.5653409,108.00018 94.1652885,109.20136 C95.2778685,109.5711 95.8796939,110.77684 95.507822,111.8929 C95.2129807,112.78438 94.3830992,113.34754 93.4928834,113.34754 C93.2708987,113.34754 93.0443604,113.3122 92.8204783,113.23734 C88.4748895,111.78878 85.2828626,107.47046 83.7847501,105.0643 C82.2361692,105.61302 79.8000288,106.44788 77.2223494,107.23562 C78.3865362,109.45596 80.5342861,113.03974 83.7263131,116.37766 C87.0280043,119.83566 91.4339274,122.45006 95.8208774,123.5532 C96.7680124,123.78994 97.4297926,124.6419 97.4297926,125.61622 Z M20.9305442,27.664 C20.9305442,40.57146 31.4162693,51.072 44.3052355,51.072 C57.1943914,51.072 67.6800406,40.57146 67.6800406,27.664 C67.6800406,14.756616 57.1943914,4.256 44.3052355,4.256 C31.4162693,4.256 20.9305442,14.756616 20.9305442,27.664 Z M58.7630837,97.92942 C39.5054318,101.78224 33.6890517,91.00126 33.456442,90.5521 C33.1784109,89.9973 32.6716026,89.58994 32.0702326,89.44022 L23.5703035,87.31222 C22.429188,87.02342 21.2774476,87.71768 20.9948249,88.86034 C20.7084836,89.99958 21.4017591,91.1544 22.5407496,91.43978 L30.1816546,93.35384 C31.8540157,95.92644 37.6646659,103.02332 50.8775021,103.02332 C53.4859179,103.02332 56.3846214,102.74668 59.5971392,102.10296 C60.7469064,101.8723 61.4936859,100.75244 61.2637325,99.59876 C61.0352969,98.44698 59.9291677,97.69268 58.7630837,97.92942 Z M27.3054911,27.664 C27.3054911,18.27686 34.9314074,10.64 44.3052355,10.64 C53.6790636,10.64 61.3050938,18.27686 61.3050938,27.664 C61.3050938,37.05114 53.6790636,44.688 44.3052355,44.688 C34.9314074,44.688 27.3054911,37.05114 27.3054911,27.664 Z M31.5554556,27.664 C31.5554556,34.704488 37.2749593,40.432 44.3052355,40.432 C51.3358912,40.432 57.0551292,34.704488 57.0551292,27.664 C57.0551292,20.623512 51.3358912,14.896 44.3052355,14.896 C37.2749593,14.896 31.5554556,20.623512 31.5554556,27.664 Z M36.4280021,32.543504 L38.5689217,30.399544 C38.1716259,29.567496 37.9302887,28.646604 37.9302887,27.664 C37.9302887,26.681396 38.1716259,25.761036 38.5689217,24.928456 L36.4280021,22.784496 C35.5981206,21.953512 35.5981206,20.606488 36.4280021,19.775504 C37.2578835,18.94452 38.6030732,18.94452 39.4325752,19.775504 L41.5734949,21.919464 C42.4045147,21.521528 43.323949,21.28 44.3052355,21.28 C45.286522,21.28 46.2055768,21.521528 47.0369761,21.919464 L49.1778958,19.775504 C50.0077772,18.94452 51.3529669,18.94452 52.1824689,19.775504 C53.0123504,20.606488 53.0123504,21.953512 52.1824689,22.784496 L50.0415493,24.928456 C50.4392245,25.760504 50.6801823,26.681396 50.6801823,27.664 C50.6801823,28.646604 50.4392245,29.566964 50.0415493,30.399544 L52.1824689,32.543504 C53.0123504,33.374488 53.0123504,34.721512 52.1824689,35.552496 C51.7677179,35.967988 51.2235707,36.176 50.6801823,36.176 C50.136794,36.176 49.5926468,35.967988 49.1778958,35.552496 L47.0369761,33.408536 C46.2063357,33.806472 45.286522,34.048 44.3052355,34.048 C43.323949,34.048 42.4048942,33.806472 41.5734949,33.408536 L39.4325752,35.552496 C39.0178242,35.967988 38.473677,36.176 37.9302887,36.176 C37.3869003,36.176 36.8431325,35.967988 36.4280021,35.552496 C35.5981206,34.721512 35.5981206,33.374488 36.4280021,32.543504 Z" id="Shape"></path>
        </g>
    </g>
</svg>