<?xml version="1.0" encoding="UTF-8"?>
<svg width="26px" height="35px" viewBox="0 0 26 35" version="1.1" xmlns="http://www.w3.org/2000/svg" xmlns:xlink="http://www.w3.org/1999/xlink">
    <title>biceps</title>
    <g id="Page-1" stroke="none" stroke-width="1" fill="none" fill-rule="evenodd">
        <g id="biceps" transform="translate(0.2041, 0)" fill="#F1E8E8" fill-rule="nonzero">
            <path d="M25.67583,33.0569 L25.67583,34.44 C25.67583,34.7495 25.42543,35 25.11583,35 C24.80633,35 24.55583,34.7495 24.55583,34.44 L24.55583,33.4786 C23.34453,33.0898 22.16163,32.3477 21.25603,31.3993 C20.21513,30.3134 19.55733,29.1421 19.25193,28.5295 C19.13493,28.559 19.01863,28.5881 18.90673,28.6136 C17.02383,29.021 13.40083,29.5964 10.22233,28.8942 C7.99442,28.3998 5.25238,26.972 2.07228,24.6499 C1.90218,24.5246 1.4931,24.3677 1.19448,24.2535 C0.81004,24.1063 0.60228,24.0237 0.45668,23.9072 C0.168,23.6809 0,23.3346 0,22.96 L0,21.8903 C0,20.797 3.23316,7.1925 3.6176,6.03414 C3.7527,5.60588 4.1853,5.40134 4.27056,5.36536 L4.7117,5.16362 C5.62086,2.17868 8.3979,0 11.67583,0 C15.68993,0 18.95583,3.26592 18.95583,7.28 C18.95583,11.2941 15.68993,14.56 11.67583,14.56 C10.89413,14.56 10.14213,14.4329 9.43573,14.2037 L9.82663,17.1468 C10.95523,16.2187 12.38843,15.68 13.91583,15.68 C15.34143,15.68 16.70303,16.1624 17.80553,16.9974 C18.94393,15.4846 20.82793,14.56 22.87583,14.56 C23.72513,14.56 24.54813,14.7143 25.32093,15.0188 C25.60923,15.1325 25.75023,15.4574 25.63713,15.7451 C25.52343,16.0334 25.19733,16.1728 24.91073,16.0612 C24.26873,15.808 23.58393,15.68 22.87583,15.68 C21.14263,15.68 19.56123,16.47 18.64173,17.7535 C19.07763,18.2228 19.44893,18.758 19.73193,19.3512 C19.86533,19.6307 19.74663,19.9648 19.46773,20.0977 C19.18773,20.2311 18.85353,20.1124 18.72123,19.8335 C17.84243,17.9906 15.95623,16.8 13.91583,16.8 C11.77263,16.8 9.84873,18.0753 9.01363,20.0495 C8.92333,20.2633 8.71612,20.3913 8.49786,20.3913 C8.42506,20.3913 8.35072,20.377 8.2796,20.347 C7.9947,20.2268 7.86184,19.8981 7.9821,19.6132 C8.20442,19.0876 8.49366,18.6059 8.83243,18.1695 L8.23816,13.6944 C5.9857,12.4824 4.445,10.1185 4.4016,7.39676 C3.50812,10.844 1.1403,21.0617 1.12,21.8926 L1.12,22.96 C1.12,22.9895 1.13036,23.0125 1.15178,23.0289 C1.19658,23.0552 1.42688,23.1431 1.59474,23.2077 C1.9929,23.3597 2.44398,23.5325 2.73448,23.7464 C5.78718,25.9755 8.38866,27.3399 10.46453,27.8004 C13.54453,28.4817 17.22503,27.831 18.66383,27.5198 C20.07813,27.1982 22.11733,26.4452 22.13753,26.4376 C22.40493,26.3386 22.70523,26.4568 22.83263,26.7116 C23.06233,27.1677 23.86683,28.4211 24.81553,28.7372 C25.10873,28.8345 25.26733,29.1518 25.16933,29.4455 C25.09163,29.6801 24.87293,29.8283 24.63833,29.8283 C24.57983,29.8283 24.52013,29.819 24.46113,29.7993 C23.31593,29.4181 22.47473,28.2817 22.07993,27.6485 C21.67183,27.7929 21.02983,28.0126 20.35053,28.2199 C20.65733,28.8042 21.22333,29.7473 22.06453,30.6257 C22.93463,31.5357 24.09573,32.2237 25.25183,32.514 C25.50143,32.5763 25.67583,32.8005 25.67583,33.0569 Z M5.51586,7.28 C5.51586,10.6767 8.27918,13.44 11.67583,13.44 C15.07253,13.44 17.83583,10.6767 17.83583,7.28 C17.83583,3.88332 15.07253,1.12 11.67583,1.12 C8.27918,1.12 5.51586,3.88332 5.51586,7.28 Z M15.48593,25.7709 C10.41093,26.7848 8.87813,23.9477 8.81683,23.8295 C8.74356,23.6835 8.61,23.5763 8.45152,23.5369 L6.21152,22.9769 C5.9108,22.9009 5.60728,23.0836 5.5328,23.3843 C5.45734,23.6841 5.64004,23.988 5.9402,24.0631 L7.95382,24.5668 C8.39454,25.2438 9.92583,27.1114 13.40783,27.1114 C14.09523,27.1114 14.85913,27.0386 15.70573,26.8692 C16.00873,26.8085 16.20553,26.5138 16.14493,26.2102 C16.08473,25.9071 15.79323,25.7086 15.48593,25.7709 Z M7.19586,7.28 C7.19586,4.8097 9.20553,2.8 11.67583,2.8 C14.14613,2.8 16.15583,4.8097 16.15583,7.28 C16.15583,9.7503 14.14613,11.76 11.67583,11.76 C9.20553,11.76 7.19586,9.7503 7.19586,7.28 Z M8.31586,7.28 C8.31586,9.13276 9.82313,10.64 11.67583,10.64 C13.52863,10.64 15.03583,9.13276 15.03583,7.28 C15.03583,5.42724 13.52863,3.92 11.67583,3.92 C9.82313,3.92 8.31586,5.42724 8.31586,7.28 Z M9.59993,8.56408 L10.16413,7.99988 C10.05943,7.78092 9.99583,7.53858 9.99583,7.28 C9.99583,7.02142 10.05943,6.77922 10.16413,6.56012 L9.59993,5.99592 C9.38123,5.77724 9.38123,5.42276 9.59993,5.20408 C9.81863,4.9854 10.17313,4.9854 10.39173,5.20408 L10.95593,5.76828 C11.17493,5.66356 11.41723,5.6 11.67583,5.6 C11.93443,5.6 12.17663,5.66356 12.39573,5.76828 L12.95993,5.20408 C13.17863,4.9854 13.53313,4.9854 13.75173,5.20408 C13.97043,5.42276 13.97043,5.77724 13.75173,5.99592 L13.18753,6.56012 C13.29233,6.77908 13.35583,7.02142 13.35583,7.28 C13.35583,7.53858 13.29233,7.78078 13.18753,7.99988 L13.75173,8.56408 C13.97043,8.78276 13.97043,9.13724 13.75173,9.35592 C13.64243,9.46526 13.49903,9.52 13.35583,9.52 C13.21263,9.52 13.06923,9.46526 12.95993,9.35592 L12.39573,8.79172 C12.17683,8.89644 11.93443,8.96 11.67583,8.96 C11.41723,8.96 11.17503,8.89644 10.95593,8.79172 L10.39173,9.35592 C10.28243,9.46526 10.13903,9.52 9.99583,9.52 C9.85263,9.52 9.70933,9.46526 9.59993,9.35592 C9.38123,9.13724 9.38123,8.78276 9.59993,8.56408 Z" id="Shape"></path>
        </g>
    </g>
</svg>