<?xml version="1.0" encoding="UTF-8"?>
<svg width="112px" height="111px" viewBox="0 0 112 111" version="1.1" xmlns="http://www.w3.org/2000/svg" xmlns:xlink="http://www.w3.org/1999/xlink">
    <title>chest</title>
    <g id="Page-1" stroke="none" stroke-width="1" fill="none" fill-rule="evenodd">
        <g id="chest" fill="#F1E8E8" fill-rule="nonzero">
            <path d="M111.866014,30.3368416 C108.139534,20.6676061 93.0864682,19.5548971 89.4150853,19.4282441 C82.160079,12.0367942 76.5566672,9.17522362 74.3112114,8.23625233 L72.6827116,1.47225319 C72.43263,0.433314619 71.4158073,-0.205284293 70.4168006,0.0601518695 C69.4144945,0.319764946 68.8047969,1.37374603 69.056858,2.41462377 L70.9265316,10.1787354 C71.0852245,10.8440247 71.5817586,11.3758689 72.2171902,11.570967 C72.2795457,11.5898665 78.5012332,13.5828468 87.308857,22.7260785 C87.6592352,23.0900254 88.1339944,23.2938186 88.6285489,23.294803 C93.220087,23.3006107 105.718889,24.836951 108.393905,31.7799968 C108.685557,32.5374868 109.388292,33 110.129629,33 C110.361565,33 110.59713,32.9543918 110.823128,32.8605504 C111.781884,32.4617903 112.249385,31.333102 111.866014,30.3368416 Z M25.6263405,22.7256047 C34.4424204,13.5726234 39.8105631,11.5642559 39.852463,11.5492289 C40.4588576,11.3386213 40.9204169,10.8223226 41.0738301,10.178918 L42.9431618,2.4151724 C43.1952214,1.37434638 42.5851977,0.320903912 41.583228,0.0608188034 C40.5772992,-0.20654521 39.5660917,0.433479391 39.3173313,1.47284865 L37.6739954,8.29572065 C35.6456418,9.26909582 30.6413689,12.1455512 23.5193998,19.4274749 C19.7382755,19.547822 3.87300716,20.6357042 0.133945832,30.3365146 C-0.249307091,31.3326927 0.218074337,32.4613249 1.17620747,32.8602293 C1.40288621,32.9543941 1.63844642,33 1.87026863,33 C2.61153817,33 3.3144841,32.5375098 3.60659604,31.779106 C6.2814296,24.8344366 19.4555004,23.299649 24.3064591,23.2943009 C24.8009445,23.2933166 25.2757996,23.0895336 25.6263405,22.7256047 Z M96.7773947,54.1401789 L90.2430129,61.1817008 L65.765775,61.1817008 C63.6157696,61.1817008 61.649655,59.8163168 60.7285536,57.6925654 L57.4129184,45.4021729 C57.19047,44.5734548 56.4535889,44 55.6132281,44 C54.7728674,44 54.0356567,44.5731321 53.8135378,45.4021729 L50.4979026,57.6925654 C49.5768013,59.8159941 47.6106866,61.1817008 45.4610108,61.1817008 L22.7546602,61.1817008 L16.2223217,54.141147 C15.5145731,53.37568 14.3310815,53.3430863 13.5817763,54.0695055 C12.8338552,54.7949565 12.8030419,56.0038264 13.5126689,56.7680026 L20.5977672,64.4042782 C20.949763,64.7847527 21.4404348,65 21.9525935,65 L45.4613403,65 C49.1523367,65 52.4989499,62.6722962 53.9852351,59.069567 C54.0162131,58.9930848 54.0419182,58.9146664 54.0636688,58.8346344 L55.6138872,53.0897594 L57.1637762,58.8346344 C57.1855267,58.9146664 57.2112318,58.9930848 57.2422098,59.069567 C58.728495,62.6722962 62.0751082,65 65.7661046,65 L91.0458046,65 C91.5582599,65 92.0486352,64.7847527 92.400598,64.4052463 L99.4873111,56.7689707 C100.197169,56.0035037 100.165861,54.7956019 99.4184344,54.0695055 C98.6703486,53.3421182 97.4849455,53.3760027 96.7773947,54.1401789 Z M28.3191361,74.439291 C28.4843626,73.9180441 28.4336348,73.3485091 28.1808833,72.8689354 C27.9262919,72.3883696 27.4920508,72.0430766 26.982868,71.916403 C24.7045561,71.3491831 19.6396692,69.4193127 18.5268134,67.0803164 C18.1195789,66.2223757 17.1761222,65.806635 16.3103998,66.0867721 C15.4395849,66.3705474 14.8922249,67.2754532 15.0178943,68.225009 C15.0886305,68.7591548 16.8089048,81.4238675 22.1083416,91.3444268 L26.170206,99.729689 L26.170206,109.04367 C26.170206,110.123869 27.0028766,111 28.0319528,111 C29.061029,111 29.8936995,110.123869 29.8936995,109.04367 L29.8936995,99.2606991 C29.8936995,98.9521182 29.8248031,98.6484985 29.6917086,98.3733225 L25.3920086,89.4998874 C22.499313,84.0833513 20.7176333,77.6487962 19.7285741,73.177847 C21.4013404,74.1353406 23.1518739,74.8057514 24.4117875,75.2214921 C23.9952222,81.5115137 30.058926,88.0985402 30.8222402,88.900255 C31.5492499,89.6642654 32.7277494,89.6642654 33.4546934,88.900255 C34.1817689,88.1362446 34.1817689,86.8976217 33.4546934,86.1336113 C31.7354377,84.3244611 27.0973668,78.2944015 28.3191361,74.439291 Z M97.7511051,66.1191981 C96.8414304,65.7782325 95.8195624,66.1903015 95.3832554,67.0802516 C94.3580182,69.1819361 88.8467367,71.1678708 85.2612704,71.9063541 C84.7245623,72.0171431 84.2599543,72.3581088 83.9840196,72.8432655 C83.7101065,73.3284223 83.6524937,73.9114702 83.8256689,74.4432576 C85.0806831,78.3007001 80.4474063,84.1920309 78.5569673,86.1366264 C77.8127186,86.9015668 77.8147401,88.1400889 78.5606734,88.9030451 C79.3062698,89.6643476 80.5127681,89.6689776 81.2583645,88.9020529 C82.0376525,88.1043719 88.2015415,81.5744333 87.8376715,75.3113806 C89.3891724,74.9036108 91.5663274,74.2279631 93.6083788,73.2364839 C92.2135442,77.7265814 89.9669844,84.079919 87.0378316,89.4282181 L81.7111804,98.2311508 C81.522844,98.5406986 81.4241274,98.8975385 81.4241274,99.2616541 L81.4241274,109.043499 C81.4241274,110.12394 82.2778741,111 83.3330968,111 C84.3883195,111 85.2424031,110.12394 85.2424031,109.043499 L85.2424031,99.8185757 L90.3244529,91.4158064 C95.7461145,81.5175506 98.8150877,68.9544052 98.9437899,68.4242714 C99.177273,67.4579265 98.6648229,66.4641323 97.7511051,66.1191981 Z M33.0446991,21.5655152 C32.8210257,22.6436342 33.4586272,23.7122182 34.4691279,23.9512668 L50.8108506,27.825611 L54.1742233,31.4139423 C54.540505,31.8045009 55.0202777,32 55.5000505,32 C55.9794924,32 56.4595961,31.8045009 56.8255469,31.4139423 L60.1892504,27.825611 L76.5306422,23.9512668 C77.5414739,23.7117449 78.1787445,22.6436342 77.955402,21.5655152 C77.7317286,20.4854351 76.7285071,19.8113656 75.7180064,20.0468978 L58.8435705,24.0472581 C58.495818,24.1292852 58.1768518,24.3157904 57.924392,24.5853032 L55.5000505,27.171558 L53.075709,24.5853032 C52.8229184,24.3157904 52.5042831,24.1292852 52.1565306,24.0472581 L35.2817638,20.0468978 C34.2801967,19.8133605 33.269696,20.4854351 33.0446991,21.5655152 Z M56.0001765,83 C54.8943792,83 54,83.850497 54,84.8998073 L54,100.100193 C54,101.149503 54.8943792,102 56.0001765,102 C57.1056208,102 58,101.149503 58,100.100193 L58,84.8998073 C58,83.850497 57.1056208,83 56.0001765,83 Z" id="Shape"></path>
        </g>
    </g>
</svg>