<?xml version="1.0" encoding="UTF-8"?>
<svg width="34px" height="34px" viewBox="0 0 34 34" version="1.1" xmlns="http://www.w3.org/2000/svg" xmlns:xlink="http://www.w3.org/1999/xlink">
    <title>chest</title>
    <g id="Page-1" stroke="none" stroke-width="1" fill="none" fill-rule="evenodd">
        <g id="chest" fill="#F1E8E8" fill-rule="nonzero">
            <path d="M33.9594,9.24624995 C32.8299,6.29935995 28.2673,5.96023995 27.1545,5.92163995 C24.9555,3.66894995 23.2571,2.79682995 22.5765,2.51065995 L22.0829,0.44919795 C22.0071,0.13256095 21.6989,-0.0620646503 21.3961,0.0188322497 C21.0923,0.0979544497 20.9075,0.41917595 20.9839,0.73640395 L21.5506,3.10266995 C21.5987,3.30542995 21.7492,3.46751995 21.9418,3.52697995 C21.9607,3.53273995 23.8465,4.14013995 26.5161,6.92671995 C26.6223,7.03763995 26.7662,7.09974995 26.9161,7.10004995 C28.3078,7.10181995 32.0962,7.57004995 32.907,9.68607995 C32.9954,9.91693995 33.2084,10.0578999 33.4331,10.0578999 C33.5034,10.0578999 33.5748,10.0439999 33.6433,10.0153999 C33.9339,9.89386995 34.0756,9.54987995 33.9594,9.24624995 Z M7.76741998,6.92641995 C10.4396,4.13672995 12.0667,3.52460995 12.0794,3.52002995 C12.2632,3.45583995 12.4031,3.29847995 12.4496,3.10237995 L13.0162,0.73610795 C13.0926,0.41887995 12.9077,0.0978066497 12.604,0.0185366497 C12.2991,-0.0629518503 11.9926,0.13211795 11.9172,0.44890195 L11.4191,2.52840995 C10.8043,2.82507995 9.28748998,3.70177995 7.12879998,5.92119995 C5.98272998,5.95787995 1.17391998,6.28944995 0.0405993798,9.24610995 C-0.0755657202,9.54972995 0.0660989798,9.89371995 0.35651198,10.0152999 C0.42521898,10.0439999 0.49661798,10.0578999 0.56688398,10.0578999 C0.79156498,10.0578999 1.00462998,9.91693995 1.09316998,9.68578995 C1.90391998,7.56915995 5.89701998,7.10137995 7.36735998,7.09974995 C7.51723998,7.09944995 7.66116998,7.03733995 7.76741998,6.92641995 Z M29.5052,16.4532999 L27.5224,18.6352999 L20.095,18.6352999 C19.4426,18.6352999 18.846,18.2121999 18.5665,17.5540999 L17.5604,13.7455999 C17.4929,13.4887999 17.2693,13.3110999 17.0143,13.3110999 C16.7593,13.3110999 16.5356,13.4886999 16.4682,13.7455999 L15.4621,17.5540999 C15.1826,18.2120999 14.586,18.6352999 13.9337,18.6352999 L7.04365998,18.6352999 L5.06147998,16.4535999 C4.84671998,16.2163999 4.48759998,16.2062999 4.26022998,16.4313999 C4.03327998,16.6561999 4.02392998,17.0307999 4.23925998,17.2675999 L6.38916998,19.6338999 C6.49597998,19.7517999 6.64486998,19.8184999 6.80027998,19.8184999 L13.9338,19.8184999 C15.0538,19.8184999 16.0693,19.0971999 16.5203,17.9807999 C16.5297,17.9570999 16.5375,17.9327999 16.5441,17.9079999 L17.0145,16.1277999 L17.4848,17.9079999 C17.4914,17.9327999 17.4992,17.9570999 17.5086,17.9807999 C17.9596,19.0971999 18.9751,19.8184999 20.0951,19.8184999 L27.766,19.8184999 C27.9215,19.8184999 28.0703,19.7517999 28.1771,19.6341999 L30.3275,17.2678999 C30.5429,17.0306999 30.5334,16.6563999 30.3066,16.4313999 C30.0796,16.2059999 29.7199,16.2164999 29.5052,16.4532999 Z M8.47078998,22.6676999 C8.52107998,22.5100999 8.50563998,22.3378999 8.42870998,22.1928999 C8.35121998,22.0475999 8.21904998,21.9431999 8.06406998,21.9048999 C7.37061998,21.7333999 5.82901998,21.1498999 5.49029998,20.4426999 C5.36634998,20.1832999 5.07918998,20.0575999 4.81568998,20.1422999 C4.55063998,20.2280999 4.38403998,20.5016999 4.42228998,20.7887999 C4.44381998,20.9502999 4.96741998,24.7794999 6.58040998,27.7789999 L7.81671998,30.3142999 L7.81671998,33.1303999 C7.81671998,33.4569999 8.07015998,33.7218999 8.38337998,33.7218999 C8.69659998,33.7218999 8.95003998,33.4569999 8.95003998,33.1303999 L8.95003998,30.1724999 C8.95003998,30.0791999 8.92906998,29.9873999 8.88855998,29.9041999 L7.57985998,27.2212999 C6.69940998,25.5835999 6.15711998,23.6380999 5.85607998,22.2862999 C6.36521998,22.5757999 6.89802998,22.7784999 7.28150998,22.9041999 C7.15471998,24.8059999 9.00032998,26.7975999 9.23265998,27.0399999 C9.45393998,27.2709999 9.81263998,27.2709999 10.0339,27.0399999 C10.2552,26.8089999 10.2552,26.4344999 10.0339,26.2034999 C9.51060998,25.6564999 8.09891998,23.8332999 8.47078998,22.6676999 Z M29.6624,20.1505999 C29.3924,20.0474999 29.0891,20.1720999 28.9596,20.4411999 C28.6553,21.0766999 27.0195,21.6771999 25.9553,21.9004999 C25.796,21.9339999 25.6581,22.0370999 25.5762,22.1837999 C25.4949,22.3304999 25.4778,22.5067999 25.5292,22.6675999 C25.9017,23.8339999 24.5265,25.6153999 23.9654,26.2033999 C23.7445,26.4346999 23.7451,26.8091999 23.9665,27.0398999 C24.1878,27.2700999 24.5459,27.2714999 24.7672,27.0395999 C24.9985,26.7983999 26.828,24.8238999 26.72,22.9300999 C27.1805,22.8067999 27.8267,22.6024999 28.4328,22.3026999 C28.0188,23.6603999 27.352,25.5814999 26.4826,27.1986999 L24.9016,29.8604999 C24.8457,29.9540999 24.8164,30.0619999 24.8164,30.1720999 L24.8164,33.1298999 C24.8164,33.4565999 25.0698,33.7214999 25.383,33.7214999 C25.6962,33.7214999 25.9497,33.4565999 25.9497,33.1298999 L25.9497,30.3404999 L27.4581,27.7996999 C29.0673,24.8066999 29.9782,21.0078999 30.0164,20.8475999 C30.0857,20.5553999 29.9336,20.2548999 29.6624,20.1505999 Z M10.0967,6.67573995 C10.0291,6.99459995 10.2218,7.31063995 10.5272,7.38133995 L15.4661,8.52719995 L16.4826,9.58846995 C16.5933,9.70397995 16.7383,9.76179995 16.8833,9.76179995 C17.0282,9.76179995 17.1733,9.70397995 17.2839,9.58846995 L18.3005,8.52719995 L23.2393,7.38133995 C23.5448,7.31049995 23.7374,6.99459995 23.6699,6.67573995 C23.6023,6.35629995 23.2991,6.15693995 22.9937,6.22659995 L17.8938,7.40972995 C17.7887,7.43398995 17.6923,7.48914995 17.616,7.56885995 L16.8833,8.33375995 L16.1506,7.56885995 C16.0742,7.48914995 15.9779,7.43398995 15.8728,7.40972995 L10.7728,6.22659995 C10.4701,6.15752995 10.1647,6.35629995 10.0967,6.67573995 Z M16.8833,25.1425999 C16.57,25.1425999 16.3166,25.4073999 16.3166,25.7340999 L16.3166,30.4666999 C16.3166,30.7933999 16.57,31.0581999 16.8833,31.0581999 C17.1965,31.0581999 17.4499,30.7933999 17.4499,30.4666999 L17.4499,25.7340999 C17.4499,25.4073999 17.1965,25.1425999 16.8833,25.1425999 Z" id="Shape"></path>
        </g>
    </g>
</svg>