<?xml version="1.0" encoding="UTF-8"?>
<svg width="32px" height="35px" viewBox="0 0 32 35" version="1.1" xmlns="http://www.w3.org/2000/svg" xmlns:xlink="http://www.w3.org/1999/xlink">
    <title>hips</title>
    <g id="Page-1" stroke="none" stroke-width="1" fill="none" fill-rule="evenodd">
        <g id="hips" fill="#F1E8E8" fill-rule="nonzero">
            <path d="M31.4407,8.30509 L31.4407,14.2373 C31.4407,15.8726 30.1099,17.2034 28.4746,17.2034 L14.2373,17.2034 C13.4649,17.2034 12.8127,17.7008 12.5669,18.3898 L14.2373,18.3898 C14.5652,18.3898 14.8305,18.6554 14.8305,18.9831 L14.8305,20.7627 C14.8305,21.0903 14.5652,21.3559 14.2373,21.3559 L14.2373,29.9576 C14.2373,31.1024 13.3058,32.0339 12.161,32.0339 L11.5678,32.0339 C10.423,32.0339 9.49153,31.1024 9.49153,29.9576 L9.49153,21.3559 C9.16362,21.3559 8.8983,21.0903 8.8983,20.7627 L8.8983,18.9831 C8.8983,18.6554 9.16362,18.3898 9.49153,18.3898 L11.3311,18.3898 C11.6068,17.0377 12.805,16.0169 14.2373,16.0169 L28.4746,16.0169 C29.4559,16.0169 30.2542,15.2186 30.2542,14.2373 L30.2542,8.30509 C30.2542,7.32375 29.4559,6.52542 28.4746,6.52542 L27.2881,6.52542 L27.2881,10.0847 C27.2881,11.7201 25.9574,13.0508 24.322,13.0508 L18.9831,13.0508 C17.3477,13.0508 16.0169,11.7201 16.0169,10.0847 L16.0169,8.30509 C16.0169,6.66972 17.3477,5.33898 18.9831,5.33898 L26.1017,5.33898 L26.1017,2.9661 C26.1017,1.98477 25.3034,1.18644 24.322,1.18644 L12.5318,1.18644 C7.58447,1.18644 3.55932,5.21159 3.55932,10.1592 L3.55932,21.3559 L5.33898,21.3559 C5.66689,21.3559 5.9322,21.6215 5.9322,21.9492 L5.9322,23.7288 C5.9322,24.0564 5.66689,24.322 5.33898,24.322 L5.33898,32.9237 C5.33898,34.0685 4.40748,35 3.26271,35 L2.66949,35 C1.52472,35 0.59322,34.0685 0.59322,32.9237 L0.59322,24.322 C0.265318,24.322 0,24.0564 0,23.7288 L0,21.9492 C0,21.6215 0.265318,21.3559 0.59322,21.3559 L2.37288,21.3559 L2.37288,10.1592 C2.37288,4.55742 6.9303,0 12.5318,0 L24.322,0 C25.9574,0 27.2881,1.33074 27.2881,2.9661 L27.2881,5.33898 L28.4746,5.33898 C30.1099,5.33898 31.4407,6.66972 31.4407,8.30509 Z M4.15254,24.322 L1.77966,24.322 L1.77966,32.9237 C1.77966,33.4145 2.17875,33.8136 2.66949,33.8136 L3.26271,33.8136 C3.75345,33.8136 4.15254,33.4145 4.15254,32.9237 L4.15254,24.322 Z M26.1017,6.52542 L18.9831,6.52542 C18.0017,6.52542 17.2034,7.32375 17.2034,8.30509 L17.2034,10.0847 C17.2034,11.0661 18.0017,11.8644 18.9831,11.8644 L24.322,11.8644 C25.3034,11.8644 26.1017,11.0661 26.1017,10.0847 L26.1017,6.52542 Z M13.0508,21.3559 L10.678,21.3559 L10.678,29.9576 C10.678,30.4484 11.0771,30.8475 11.5678,30.8475 L12.161,30.8475 C12.6518,30.8475 13.0508,30.4484 13.0508,29.9576 L13.0508,21.3559 Z" id="Shape"></path>
        </g>
    </g>
</svg>