<?xml version="1.0" encoding="UTF-8"?>
<svg width="88px" height="122px" viewBox="0 0 88 122" version="1.1" xmlns="http://www.w3.org/2000/svg" xmlns:xlink="http://www.w3.org/1999/xlink">
    <title>legs</title>
    <g id="Page-1" stroke="none" stroke-width="1" fill="none" fill-rule="evenodd">
        <g id="legs" fill="#F1E8E8" fill-rule="nonzero">
            <path d="M79.5883338,73.4774629 C76.5618561,70.1405886 71.4929317,64.55508 71.3424247,62.7466914 C71.1748857,60.7309029 73.8082376,49.5110857 75.8107112,41.8536686 C78.120108,39.5869086 87.5805011,28.676344 87.5805011,2.16190274 C87.5805011,1.09351389 86.7184746,0.229044194 85.6531072,0.229044194 C84.5877398,0.229044194 83.7257133,1.09351389 83.7257133,2.16190274 C83.7257133,23.4789 77.292493,33.9815663 74.3278866,37.6952114 L71.8373947,33.948696 C71.2478799,33.0595949 70.0528609,32.8218343 69.1644174,33.4128371 C68.277712,34.0057223 68.0389167,35.2039714 68.6301696,36.0931771 L72.0045862,41.1687257 C70.8300751,45.6764514 67.2328524,59.8267086 67.5025833,63.0680743 C67.7434641,65.9772514 71.1519446,69.9241257 76.7387801,76.0812914 C78.1545195,77.6404514 79.5261149,79.1518571 80.6596102,80.4962971 C82.2442791,82.3764914 82.4212031,85.8890457 81.1000084,89.2395143 C80.2491049,91.39508 77.5219033,96.4988629 70.5763334,97.3085943 C62.4638994,98.2542686 49.6906133,106.637063 40.3633477,112.756583 C36.6795748,115.174623 32.5058372,117.913349 31.6852436,118.134343 L27.8303862,118.134343 C27.8231563,118.134343 4.77649572,118.162926 4.77649572,118.162926 C4.60301289,118.034303 4.16549968,117.486349 3.96313201,115.205994 L19.5280283,110.225606 C19.889419,110.108486 20.2093768,109.88784 20.4464341,109.591554 L27.2357965,101.080834 C27.2377082,101.078394 27.2377082,101.075257 27.2396548,101.072817 C29.8652554,98.0259543 41.8141939,74.86408 44.2250873,70.1698686 C44.3564768,69.9115771 44.4301662,69.6281886 44.4374656,69.3392229 L46.3273197,1.98746017 C46.3572125,0.9190748 45.5188222,0.029959296 44.4555404,0 C43.3081414,0.0265767937 42.5034675,0.811798457 42.4746174,1.87825274 L40.5972766,68.7902229 C33.7071128,82.1955829 25.7328811,97.0621543 24.3880155,98.4871143 C23.7244984,99.0524971 20.4999284,100.239034 17.3365345,101.345051 L5.3638903,101.345051 C4.63339237,101.345051 3.96650365,101.758109 3.63980256,102.413423 L0.602664249,108.504709 C0.248017166,108.956109 0.0827402706,109.420057 0.0547925375,109.927229 C0.0528651436,109.950234 0.050455293,109.971497 0.0494914222,109.994503 C0.048527899,110.025526 0.0422639557,110.054806 0.0422639557,110.085829 C0.0422639557,110.254189 0.035518946,110.489823 0.027327296,110.778789 C-0.0854268466,114.835463 0.0745485858,118.85972 1.99233438,120.839257 C2.72909243,121.598097 3.66677565,122 4.70179834,122 L59.7912697,122 C60.8566371,122 61.7186636,121.135543 61.7186636,120.067171 C61.7186636,118.9988 60.8566371,118.134343 59.7912697,118.134343 L39.1891842,118.134343 C40.1659158,117.502731 41.224679,116.812211 42.474965,115.991674 C50.9714874,110.415926 63.8139441,101.988166 71.0209027,101.14776 C77.2754611,100.419246 82.3822728,96.4988629 84.6840226,90.66064 C86.5415507,85.9510914 86.118532,80.9815086 83.6037088,78.0008743 C82.4420585,76.6243657 81.0377896,75.0746171 79.5883338,73.4774629 Z M3.87446147,111.17372 C3.87685985,111.075423 3.87685985,110.987583 3.87974485,110.887194 C3.88266462,110.811554 3.88457637,110.741491 3.88652289,110.673869 C5.48002057,109.516611 11.9416738,107.293423 15.8962899,105.9326 C17.2170326,105.478063 18.3527873,105.082086 19.4032083,104.711206 L17.8015422,106.719674 L3.87446147,111.17372 Z M51.0590804,69.2004914 L52.9864743,63.4020057 C53.2482106,62.61284 53.9840614,62.08092 54.8144571,62.08092 L60.5966388,62.08092 C61.6620062,62.08092 62.5240327,62.9453771 62.5240327,64.0137486 C62.5240327,65.08212 61.6620062,65.9465771 60.5966388,65.9465771 L56.203432,65.9465771 L54.7146984,70.4239771 C54.4453151,71.2340571 53.6945178,71.7454114 52.8867156,71.7454114 C52.6854602,71.7454114 52.4800337,71.7133429 52.2766928,71.6453714 C51.2683304,71.309 50.7222644,70.2137886 51.0590804,69.2004914 Z M64.7055159,30.181092 C56.7585354,16.236004 58.6049405,2.46777417 58.6880148,1.88840314 C58.8381743,0.833061314 59.8322855,0.100991949 60.8660221,0.24982184 C61.9202666,0.3991352 62.6522939,1.37667937 62.5052628,2.43201771 C62.4864929,2.56248451 60.7850333,15.5106966 68.0524728,28.2632171 C68.5815068,29.1899989 68.2596372,30.3695297 67.3353919,30.9000903 C67.0340302,31.0735743 66.7045136,31.1547566 66.3812537,31.1547566 C65.7104024,31.1547566 65.0614494,30.8058714 64.7055159,30.181092 Z" id="Shape"></path>
        </g>
    </g>
</svg>