<?xml version="1.0" encoding="UTF-8"?>
<svg width="35px" height="34px" viewBox="0 0 35 34" version="1.1" xmlns="http://www.w3.org/2000/svg" xmlns:xlink="http://www.w3.org/1999/xlink">
    <title>shoulders</title>
    <g id="Page-1" stroke="none" stroke-width="1" fill="none" fill-rule="evenodd">
        <g id="shoulders" fill="#F1E8E8" fill-rule="nonzero">
            <path d="M34.3966,3.62069 L33.1897,3.62069 L33.1897,0.603448 C33.1897,0.269892 32.9198,0 32.5862,0 L30.1724,0 C29.8389,0 29.569,0.269892 29.569,0.603448 L29.569,3.62069 L28.9655,3.62069 L28.9655,3.01724 C28.9655,2.68369 28.6956,2.41379 28.3621,2.41379 L25.3448,2.41379 C25.0113,2.41379 24.7414,2.68369 24.7414,3.01724 L24.7414,3.62069 L20.5172,3.62069 L20.5172,3.01724 L20.5172,2.00541 C20.5172,0.899892 19.6173,0 18.5118,0 L13.8793,0 C13.5458,0 13.2759,0.269892 13.2759,0.603448 C13.2759,1.58647 13.7555,2.45287 14.4855,3.00397 C14.4853,3.00864 14.4828,3.01256 14.4828,3.01724 L14.4828,3.62069 L10.2586,3.62069 L10.2586,3.01724 C10.2586,2.68369 9.98873,2.41379 9.65517,2.41379 L6.63793,2.41379 C6.30437,2.41379 6.03448,2.68369 6.03448,3.01724 L6.03448,3.62069 L5.43103,3.62069 L5.43103,0.603448 C5.43103,0.269892 5.16114,0 4.82759,0 L2.41379,0 C2.08024,0 1.81034,0.269892 1.81034,0.603448 L1.81034,3.62069 L0.603448,3.62069 C0.269892,3.62069 0,3.89058 0,4.22414 L0,6.03448 C0,6.36804 0.269892,6.63793 0.603448,6.63793 L1.81034,6.63793 L1.81034,9.65517 C1.81034,9.98873 2.08024,10.2586 2.41379,10.2586 L4.82759,10.2586 C5.16114,10.2586 5.43103,9.98873 5.43103,9.65517 L5.43103,6.63793 L6.56295,6.63793 L6.04444,10.7872 C6.04142,10.812 6.03976,10.8373 6.03976,10.8621 C6.03976,11.383 6.26485,11.8798 6.65679,12.2239 C6.75756,12.3129 6.8855,12.3654 7.01916,12.373 L11.606,12.6456 L13.2593,18.7086 L11.4808,26.4161 C11.4396,26.5953 11.482,26.7833 11.5969,26.9271 C11.7113,27.0714 11.8851,27.1552 12.069,27.1552 L12.069,33.1897 C12.069,33.5232 12.3389,33.7931 12.6724,33.7931 C13.006,33.7931 13.2759,33.5232 13.2759,33.1897 L13.2759,27.1552 L15.581,27.1552 L15.0945,30.0735 C15.0892,30.1059 15.0862,30.1394 15.0862,30.1724 L15.0862,33.1897 C15.0862,33.5232 15.3561,33.7931 15.6897,33.7931 C16.0232,33.7931 16.2931,33.5232 16.2931,33.1897 L16.2931,30.2225 L16.8069,27.1398 C17.0412,27.103 17.2386,26.9387 17.2997,26.7036 L17.5,25.9329 L17.7003,26.7036 C17.7613,26.9387 17.9588,27.1028 18.1929,27.1398 L18.7069,30.2225 L18.7069,33.1897 C18.7069,33.5232 18.9768,33.7931 19.3103,33.7931 C19.6439,33.7931 19.9138,33.5232 19.9138,33.1897 L19.9138,30.1724 C19.9138,30.1394 19.9108,30.1059 19.9055,30.0735 L19.419,27.1552 L21.7241,27.1552 L21.7241,33.1897 C21.7241,33.5232 21.994,33.7931 22.3276,33.7931 C22.6611,33.7931 22.931,33.5232 22.931,33.1897 L22.931,27.1552 C23.1149,27.1552 23.2887,27.0714 23.4031,26.9271 C23.518,26.7833 23.5604,26.5953 23.5192,26.4161 L21.7431,18.7191 L23.3995,12.6456 L27.9857,12.3728 C28.1195,12.3651 28.2467,12.3128 28.3474,12.2244 C28.7404,11.8804 28.9655,11.3836 28.9655,10.8621 C28.9655,10.8373 28.9637,10.812 28.9608,10.7872 L28.4419,6.63793 L29.569,6.63793 L29.569,9.65517 C29.569,9.98873 29.8389,10.2586 30.1724,10.2586 L32.5862,10.2586 C32.9198,10.2586 33.1897,9.98873 33.1897,9.65517 L33.1897,6.63793 L34.3966,6.63793 C34.7301,6.63793 35,6.36804 35,6.03448 L35,4.22414 C35,3.89058 34.7301,3.62069 34.3966,3.62069 L34.3966,3.62069 Z M20.5172,6.63793 L25.3448,6.63793 L25.3448,8.3392 L22.4266,7.85297 C22.3941,7.84785 22.3606,7.84483 22.3276,7.84483 L20.5172,7.84483 L20.5172,6.63793 Z M25.9483,3.62069 L27.7586,3.62069 L27.7586,4.22414 L25.9483,4.22414 L25.9483,3.62069 Z M18.5118,1.2069 C18.952,1.2069 19.3103,1.56519 19.3103,2.00541 L19.3103,2.41379 L16.2931,2.41379 C15.5064,2.41379 14.8352,1.90931 14.5859,1.2069 L18.5118,1.2069 Z M19.3103,3.62069 L19.3103,7.84483 L17.6137,7.84483 C16.553,7.84483 15.6897,6.98144 15.6897,5.92073 L15.6897,3.62069 L19.3103,3.62069 Z M9.66045,6.63793 L14.5734,6.63793 C14.6795,7.08705 14.8856,7.49332 15.1621,7.84483 L12.6775,7.84483 C12.6445,7.84483 12.611,7.84785 12.5786,7.85313 L9.6603,8.33935 L9.6603,6.63793 L9.66045,6.63793 Z M7.24138,3.62069 L9.05172,3.62069 L9.05172,4.22414 L7.24138,4.22414 L7.24138,3.62069 Z M1.2069,5.43103 L1.2069,4.82759 L1.81034,4.82759 L1.81034,5.43103 L1.2069,5.43103 Z M4.22414,9.05172 L3.01724,9.05172 L3.01724,1.2069 L4.22414,1.2069 L4.22414,9.05172 Z M22.1727,25.9483 L18.7511,25.9483 L18.084,23.3824 C18.015,23.1166 17.7746,22.931 17.5,22.931 C17.2254,22.931 16.985,23.1166 16.916,23.3824 L16.2489,25.9483 L12.8273,25.9483 L14.3592,19.3103 L20.6405,19.3103 L22.1727,25.9483 Z M20.6598,18.1034 L14.3455,18.1034 L13.0125,13.2154 L14.213,13.8156 C14.2967,13.8574 14.3892,13.8793 14.4829,13.8793 L20.5174,13.8793 C20.6111,13.8793 20.7036,13.8574 20.7873,13.8156 L21.9939,13.2124 L20.6598,18.1034 Z M27.758,10.8933 C27.7527,10.9965 27.7203,11.0967 27.6661,11.1833 L22.8951,11.4667 C22.8138,11.4714 22.7343,11.4927 22.6611,11.5292 L20.3747,12.6724 L18.1034,12.6724 L18.1034,11.4655 C18.1034,11.132 17.8336,10.8621 17.5,10.8621 C17.1664,10.8621 16.8966,11.132 16.8966,11.4655 L16.8966,12.6724 L14.6253,12.6724 L12.3918,11.5557 C12.3093,11.5044 12.2132,11.4726 12.1102,11.4667 L7.33914,11.1833 C7.28498,11.0967 7.25254,10.9965 7.24726,10.8933 L7.7792,6.63793 L8.45356,6.63793 L8.45356,9.05172 C8.45356,9.22914 8.5314,9.39765 8.66687,9.51201 C8.8019,9.62696 8.98097,9.67463 9.15597,9.64703 L12.7278,9.05172 L22.2775,9.05172 L25.8493,9.64688 C25.8822,9.65216 25.9152,9.65517 25.9483,9.65517 C26.0902,9.65517 26.2287,9.60509 26.3384,9.51201 C26.4739,9.39765 26.5517,9.22914 26.5517,9.05172 L26.5517,6.63793 L27.2258,6.63793 L27.758,10.8933 Z M31.9828,9.05172 L30.7759,9.05172 L30.7759,1.2069 L31.9828,1.2069 L31.9828,9.05172 Z M33.7931,5.43103 L33.1897,5.43103 L33.1897,4.82759 L33.7931,4.82759 L33.7931,5.43103 Z M18.1034,15.0862 L18.1034,16.8966 C18.1034,17.2301 17.8336,17.5 17.5,17.5 C17.1664,17.5 16.8966,17.2301 16.8966,16.8966 L16.8966,15.0862 C16.8966,14.7527 17.1664,14.4828 17.5,14.4828 C17.8336,14.4828 18.1034,14.7527 18.1034,15.0862 Z" id="Shape"></path>
        </g>
    </g>
</svg>