<?xml version="1.0" encoding="UTF-8"?>
<svg width="133px" height="128px" viewBox="0 0 133 128" version="1.1" xmlns="http://www.w3.org/2000/svg" xmlns:xlink="http://www.w3.org/1999/xlink">
    <title>shoulders</title>
    <g id="Page-1" stroke="none" stroke-width="1" fill="none" fill-rule="evenodd">
        <g id="shoulders" fill="#F1E8E8" fill-rule="nonzero">
            <path d="M130.70708,13.7142884 L126.12086,13.7142884 L126.12086,2.28571347 C126.12086,1.0222849 125.09524,0 123.82756,0 L114.65512,0 C113.38782,0 112.3622,1.0222849 112.3622,2.28571347 L112.3622,13.7142884 L110.0689,13.7142884 L110.0689,11.4285674 C110.0689,10.1651615 109.04328,9.14284632 107.77598,9.14284632 L96.31024,9.14284632 C95.04294,9.14284632 94.01732,10.1651615 94.01732,11.4285674 L94.01732,13.7142884 L77.96536,13.7142884 L77.96536,11.4285674 L77.96536,7.59600273 C77.96536,3.40857086 74.54574,0 70.34484,0 L52.74134,0 C51.47404,0 50.44842,1.0222849 50.44842,2.28571347 C50.44842,6.00916045 52.2709,9.29087181 55.0449,11.3783039 C55.04414,11.3959927 55.03464,11.4108407 55.03464,11.4285674 L55.03464,13.7142884 L38.98268,13.7142884 L38.98268,11.4285674 C38.98268,10.1651615 37.957174,9.14284632 36.689646,9.14284632 L25.224134,9.14284632 C23.956606,9.14284632 22.931024,10.1651615 22.931024,11.4285674 L22.931024,13.7142884 L20.637914,13.7142884 L20.637914,2.28571347 C20.637914,1.0222849 19.612332,0 18.344842,0 L9.172402,0 C7.904912,0 6.879292,1.0222849 6.879292,2.28571347 L6.879292,13.7142884 L2.2931024,13.7142884 C1.0255896,13.7142884 0,14.7365657 0,16 L0,22.8571347 C0,24.1205785 1.0255896,25.1428558 2.2931024,25.1428558 L6.879292,25.1428558 L6.879292,36.5714232 C6.879292,37.8348669 7.904912,38.8570685 9.172402,38.8570685 L18.344842,38.8570685 C19.612332,38.8570685 20.637914,37.8348669 20.637914,36.5714232 L20.637914,25.1428558 L24.93921,25.1428558 L22.968872,40.859276 C22.957396,40.9532123 22.951088,41.0490426 22.951088,41.1429789 C22.951088,43.1160207 23.80643,44.9977777 25.295802,46.3011443 C25.678728,46.6382546 26.1649,46.8371117 26.672808,46.8658987 L44.1028,47.8984408 L50.38534,70.8636023 L43.62704,100.057728 C43.47048,100.736494 43.6316,101.448592 44.06822,101.993271 C44.50294,102.539844 45.16338,102.857258 45.8622,102.857258 L45.8622,125.714468 C45.8622,126.977685 46.88782,128 48.15512,128 C49.4228,128 50.44842,126.977685 50.44842,125.714468 L50.44842,102.857258 L59.2078,102.857258 L57.3591,113.911065 C57.33896,114.033788 57.32756,114.160678 57.32756,114.285674 L57.32756,125.714468 C57.32756,126.977685 58.35318,128 59.62086,128 C60.88816,128 61.91378,126.977685 61.91378,125.714468 L61.91378,114.47544 L63.86622,102.798926 C64.75656,102.659537 65.50668,102.037209 65.73886,101.146707 L66.5,98.2274843 L67.26114,101.146707 C67.49294,102.037209 68.24344,102.658779 69.13302,102.798926 L71.08622,114.47544 L71.08622,125.714468 C71.08622,126.977685 72.11184,128 73.37914,128 C74.64682,128 75.67244,126.977685 75.67244,125.714468 L75.67244,114.285674 C75.67244,114.160678 75.66104,114.033788 75.6409,113.911065 L73.7922,102.857258 L82.55158,102.857258 L82.55158,125.714468 C82.55158,126.977685 83.5772,128 84.84488,128 C86.11218,128 87.1378,126.977685 87.1378,125.714468 L87.1378,102.857258 C87.83662,102.857258 88.49706,102.539844 88.93178,101.993271 C89.3684,101.448592 89.52952,100.736494 89.37296,100.057728 L82.62378,70.9033738 L88.9181,47.8984408 L106.34566,46.8651411 C106.8541,46.8359754 107.33746,46.6378758 107.72012,46.3030382 C109.21352,45.0000503 110.0689,43.1182934 110.0689,41.1429789 C110.0689,41.0490426 110.06206,40.9532123 110.05104,40.859276 L108.07922,25.1428558 L112.3622,25.1428558 L112.3622,36.5714232 C112.3622,37.8348669 113.38782,38.8570685 114.65512,38.8570685 L123.82756,38.8570685 C125.09524,38.8570685 126.12086,37.8348669 126.12086,36.5714232 L126.12086,25.1428558 L130.70708,25.1428558 C131.97438,25.1428558 133,24.1205785 133,22.8571347 L133,16 C133,14.7365657 131.97438,13.7142884 130.70708,13.7142884 L130.70708,13.7142884 Z M77.96536,25.1428558 L96.31024,25.1428558 L96.31024,31.5868506 L85.22108,29.7451302 C85.09758,29.7257369 84.97028,29.7142979 84.84488,29.7142979 L77.96536,29.7142979 L77.96536,25.1428558 Z M98.60354,13.7142884 L105.48268,13.7142884 L105.48268,16.0000095 L98.60354,16.0000095 L98.60354,13.7142884 Z M70.34484,4.5714421 C72.0176,4.5714421 73.37914,5.92855701 73.37914,7.59600273 L73.37914,9.14284632 L61.91378,9.14284632 C58.92432,9.14284632 56.37376,7.23199943 55.42642,4.5714421 L70.34484,4.5714421 Z M73.37914,13.7142884 L73.37914,29.7142884 L66.93206,29.7142884 C62.9014,29.7142884 59.62086,26.4439877 59.62086,22.4262776 L59.62086,13.7142884 L73.37914,13.7142884 Z M36.70971,25.1428558 L55.37892,25.1428558 C55.7821,26.8440125 56.56528,28.382864 57.61598,29.7142979 L48.1745,29.7142979 C48.0491,29.7142979 47.9218,29.7257369 47.79868,29.7457363 L36.70914,31.5874187 L36.70914,25.1428558 L36.70971,25.1428558 Z M27.517244,13.7142884 L34.396536,13.7142884 L34.396536,16.0000095 L27.517244,16.0000095 L27.517244,13.7142884 Z M4.58622,20.5714137 L4.58622,18.2857305 L6.879292,18.2857305 L6.879292,20.5714137 L4.58622,20.5714137 Z M16.051732,34.2857021 L11.465512,34.2857021 L11.465512,4.5714421 L16.051732,4.5714421 L16.051732,34.2857021 Z M84.25626,98.2858157 L71.25418,98.2858157 L68.7192,88.5668139 C68.457,87.5600285 67.54348,86.8570211 66.5,86.8570211 C65.45652,86.8570211 64.543,87.5600285 64.2808,88.5668139 L61.74582,98.2858157 L48.74374,98.2858157 L54.56496,73.1426948 L78.4339,73.1426948 L84.25626,98.2858157 Z M78.50724,68.5712527 L54.5129,68.5712527 L49.4475,50.0567039 L54.0094,52.3301147 C54.32746,52.4884429 54.67896,52.5713948 55.03502,52.5713948 L77.96612,52.5713948 C78.32218,52.5713948 78.67368,52.4884429 78.99174,52.3301147 L83.57682,50.0453406 L78.50724,68.5712527 Z M105.4804,41.2611569 C105.46026,41.6520532 105.33714,42.0315863 105.13118,42.359606 L87.00138,43.4330559 C86.69244,43.4508583 86.39034,43.5315375 86.11218,43.6697906 L77.42386,47.9999527 L68.79292,47.9999527 L68.79292,43.4285106 C68.79292,42.1652941 67.76768,41.1429789 66.5,41.1429789 C65.23232,41.1429789 64.20708,42.1652941 64.20708,43.4285106 L64.20708,47.9999527 L55.57614,47.9999527 L47.08884,43.7701661 C46.77534,43.5758542 46.41016,43.4554036 46.01876,43.4330559 L27.888732,42.359606 C27.682924,42.0315863 27.559652,41.6520532 27.539588,41.2611569 L29.56096,25.1428558 L32.123528,25.1428558 L32.123528,34.2857021 C32.123528,34.9577257 32.41932,35.5960004 32.934106,36.0291681 C33.44722,36.4645706 34.127686,36.6451329 34.792686,36.5405908 L48.36564,34.2857021 L84.6545,34.2857021 L98.22734,36.5400227 C98.35236,36.560022 98.47776,36.5714232 98.60354,36.5714232 C99.14276,36.5714232 99.66906,36.3817324 100.08592,36.0291681 C100.60082,35.5960004 100.89646,34.9577257 100.89646,34.2857021 L100.89646,25.1428558 L103.45804,25.1428558 L105.4804,41.2611569 Z M121.53464,34.2857021 L116.94842,34.2857021 L116.94842,4.5714421 L121.53464,4.5714421 L121.53464,34.2857021 Z M128.41378,20.5714137 L126.12086,20.5714137 L126.12086,18.2857305 L128.41378,18.2857305 L128.41378,20.5714137 Z M68.79292,57.1428369 L68.79292,64.0001894 C68.79292,65.2634058 67.76768,66.285721 66.5,66.285721 C65.23232,66.285721 64.20708,65.2634058 64.20708,64.0001894 L64.20708,57.1428369 C64.20708,55.8796204 65.23232,54.8573052 66.5,54.8573052 C67.76768,54.8573052 68.79292,55.8796204 68.79292,57.1428369 Z" id="Shape"></path>
        </g>
    </g>
</svg>